<?xml version="1.0" standalone="no"?>
<!DOCTYPE svg PUBLIC "-//W3C//DTD SVG 20010904//EN"
 "http://www.w3.org/TR/2001/REC-SVG-20010904/DTD/svg10.dtd">
<svg version="1.0" xmlns="http://www.w3.org/2000/svg"
 width="760.000000pt" height="730.000000pt" viewBox="0 0 760.000000 730.000000"
 preserveAspectRatio="xMidYMid meet">

<g transform="translate(0.000000,730.000000) scale(0.100000,-0.100000)"
fill="#000000" stroke="none">
<path d="M3186 6835 c-135 -22 -231 -51 -336 -102 -81 -39 -107 -58 -181 -132
-65 -67 -96 -108 -131 -177 -219 -425 -345 -1340 -389 -2829 -12 -395 -6
-2020 8 -2163 l5 -63 153 343 c292 658 547 1200 877 1858 644 1288 1175 2199
1651 2833 65 87 117 160 115 162 -1 1 -73 24 -158 50 -319 96 -619 165 -898
206 -183 27 -585 35 -716 14z" fill="#0b4e70"/>
<path d="M6034 6829 c-74 -9 -187 -47 -247 -82 -422 -248 -1040 -1152 -1876
-2744 -145 -277 -564 -1120 -715 -1438 -179 -377 -387 -828 -383 -831 8 -9
1677 1044 3152 1988 l1630 1043 3 567 2 568 -182 183 c-457 459 -851 705
-1193 746 -99 12 -103 12 -191 0z" fill="#212934"/>
<path d="M1580 4667 c-475 -357 -793 -663 -1015 -977 -84 -120 -179 -311 -205
-413 -68 -272 -38 -576 94 -962 157 -461 479 -1022 921 -1610 157 -208 375
-478 382 -472 2 3 -5 204 -17 448 -33 737 -40 975 -46 1674 -8 858 8 1557 52
2187 9 125 14 234 12 242 -2 10 -60 -29 -178 -117z" fill="#75c372"/>
<path d="M5900 3153 c-932 -596 -1804 -1154 -1938 -1240 -134 -85 -242 -157
-240 -159 8 -7 680 -130 1123 -204 669 -112 1242 -194 1780 -254 357 -40 962
-92 971 -83 2 2 3 683 2 1514 l-3 1511 -1695 -1085z" fill="#2391cd"/>
</g>
</svg>
